{"title":"2012 (2009) UHD 4K Upscaled x264 AC3 Soup","uid":13522957,"size":15112014784,"categoryP":"video","categoryS":"hd___movies","magnet":"?xt=urn:btih:8e24e67e900f6ff9cb9aa660f40ddd8353fffac2&amp;dn=2012+%282009%29+UHD+4K+Upscaled+x264+AC3+Soup&amp;tr=udp%3A%2F%2Ftracker.leechers-paradise.org%3A6969&amp;tr=udp%3A%2F%2Fzer0day.ch%3A1337&amp;tr=udp%3A%2F%2Fopen.demonii.com%3A1337&amp;tr=udp%3A%2F%2Ftracker.coppersurfer.tk%3A6969&amp;tr=udp%3A%2F%2Fexodus.desync.com%3A6969","seeders":11,"leechers":8,"uploader":"peaSoup","files":1,"time":1455375395,"description":"Storyline\r\n\r\nDr. Adrian Helmsley, part of a worldwide geophysical team investigating the effect on the earth of radiation from unprecedented solar storms, learns that the earth's core is heating up. He warns U.S. President Thomas Wilson that the crust of the earth is becoming unstable and that without proper preparations for saving a fraction of the world's population, the entire race is doomed. Meanwhile, writer Jackson Curtis stumbles on the same information. While the world's leaders race to build &quot;arks&quot; to escape the impending cataclysm, Curtis struggles to find a way to save his family. Meanwhile, volcanic eruptions and earthquakes of unprecedented strength wreak havoc around the world.  \nhttp://extraimago.com/images/2016/02/13/vlcsnap-2016-02-13-13h15m39s274.jpg \nhttp://extraimago.com/images/2016/02/13/vlcsnap-2016-02-13-13h17m28s491.png \nhttp://extraimago.com/images/2016/02/13/vlcsnap-2016-02-13-13h19m43s021.jpg \nhttp://extraimago.com/images/2016/02/13/vlcsnap-2016-02-13-13h23m15s680.jpg \nhttp://extraimago.com/images/2016/02/13/vlcsnap-2016-02-13-13h25m19s845.jpg \nhttp://extraimago.com/images/2016/02/13/vlcsnap-2016-02-13-13h29m03s289.jpg\r\n\r\n\r\nFormat                      : Matroska\r\nFormat version              : Version 2\r\nFile size                   : 14.1 GiB\r\nDuration                    : 2h 37mn\r\nOverall bit rate            : 12.8 Mbps\r\nMovie name                  : 2012 (2009) UHD 4K Upscaled x264 AC3 Soup\r\nEncoded date                : UTC 2016-02-12 03:51:13\r\nWriting application         : DVDFab 9.2.2.8\r\nWriting library             : libebml v0.7.8 + libmatroska v0.8.1\r\n\r\nVideo\r\nID                          : 1\r\nFormat                      : AVC\r\nFormat/Info                 : Advanced Video Codec\r\nFormat profile              :   \r\nFormat settings, CABAC      : Yes\r\nFormat settings, ReFrames   : 1 frame\r\nCodec ID                    : V_MPEG4/ISO/AVC\r\nDuration                    : 2h 37mn\r\nBit rate                    : 12.1 Mbps\r\nWidth                       : 3 840 pixels\r\nHeight                      : 2 160 pixels\r\nDisplay aspect ratio        : 16:9\r\nFrame rate mode             : Constant\r\nFrame rate                  : 23.976 (24000/1001) fps\r\nColor space                 : YUV\r\nChroma subsampling          : 4:2:0\r\nBit depth                   : 8 bits\r\nScan type                   : Progressive\r\nBits/(Pixel*Frame)          : 0.061\r\nStream size                 : 13.1 GiB (93%)\r\nWriting library             : x264 core 142\r\n\r\nDefault                     : Yes\r\nForced                      : No\r\nColor range                 : Limited\r\nColor primaries             : BT.709\r\nTransfer characteristics    : BT.709\r\nMatrix coefficients         : BT.709\r\n\r\nAudio\r\nID                          : 2\r\nFormat                      : AC-3\r\nFormat/Info                 : Audio Coding 3\r\nMode extension              : CM (complete main)\r\nFormat settings, Endianness : Big\r\nCodec ID                    : A_AC3\r\nDuration                    : 2h 37mn\r\nBit rate mode               : Constant\r\nBit rate                    : 640 Kbps\r\nChannel(s)                  : 6 channels\r\nChannel positions           : Front: L C R, Side: L R, LFE\r\nSampling rate               : 48.0 KHz\r\nFrame rate                  : 31.250 fps (1536 spf)\r\nCompression mode            : Lossy\r\nStream size                 : 722 MiB (5%)\r\nLanguage                    : English\r\nDefault                     : No\r\nForced                      : No","torrent":{"xt":"urn:btih:8e24e67e900f6ff9cb9aa660f40ddd8353fffac2","amp;dn":"2012+%282009%29+UHD+4K+Upscaled+x264+AC3+Soup","amp;tr":["udp%3A%2F%2Ftracker.leechers-paradise.org%3A6969","udp%3A%2F%2Fzer0day.ch%3A1337","udp%3A%2F%2Fopen.demonii.com%3A1337","udp%3A%2F%2Ftracker.coppersurfer.tk%3A6969","udp%3A%2F%2Fexodus.desync.com%3A6969"],"infoHash":"8e24e67e900f6ff9cb9aa660f40ddd8353fffac2","infoHashBuffer":{"type":"Buffer","data":[142,36,230,126,144,15,111,249,203,154,166,96,244,13,221,131,83,255,250,194]},"announce":[],"urlList":[]}}